#!OML:ASF I:\Actors\actors\Patient Classification 2\Patient 1\Session 1\actor1.ASF
:FULLY-SPECIFIED
:DEGREES
389
root -0.554056 18.5411 6.19323 -2.06775 -3.7058 -5.04534
lowerback 8.07929 1.6798 -0.165716
upperback -2.13664 2.31276 1.29779
thorax -6.83839 1.17175 1.13178
lowerneck -4.54505 -3.61678 0.956071
upperneck -3.99252 -4.76899 4.45
head -0.384269 -2.40177 1.1548
rclavicle -8.89561e-015 -3.97569e-016
rhumerus 13.1817 4.47414 -33.9064
rradius 131.625
rwrist -56.8535
rhand -3.71785 -55.0029
rfingers 7.12502
rthumb 22.0249 -83.7688
lclavicle -8.89561e-015 -3.97569e-016
lhumerus -54.0283 0.431516 80.657
lradius 55.0922
lwrist 2.32352
lhand -10.5216 -23.038
lfingers 7.12502
lthumb 15.4813 6.36217
rfemur 0 0 0
rtibia 0
rfoot 0 0
rtoes 0
lfemur -1.77378 -1.77766 -9.63377
ltibia 27.0152
lfoot -24.6705 10.4476
ltoes -56.8076
390
root -0.546078 18.5439 6.20301 -2.06853 -3.61844 -5.00072
lowerback 7.9008 1.69504 -0.101333
upperback -2.26199 2.3408 1.29878
thorax -6.86713 1.18351 1.09612
lowerneck -4.7943 -3.62357 0.881068
upperneck -2.99116 -4.82074 4.4791
head -0.0327118 -2.40485 1.15712
rclavicle -3.72721e-016 2.38542e-015
rhumerus 12.0415 4.57078 -34.323
rradius 130.419
rwrist -57.5764
rhand -3.53453 -55.4539
rfingers 7.12502
rthumb 22.2009 -84.1989
lclavicle -3.72721e-016 2.38542e-015
lhumerus -54.0575 0.800267 80.3249
lradius 54.7374
lwrist 2.11663
lhand -10.6818 -23.5771
lfingers 7.12502
lthumb 15.327 5.83493
rfemur 0 0 0
rtibia 0
rfoot 0 0
rtoes 0
lfemur -1.65517 -1.94497 -9.7423
ltibia 26.823
lfoot -24.6786 10.5509
ltoes -56.796
391
root -0.538991 18.5472 6.21431 -2.06124 -3.51392 -4.95398
lowerback 7.70887 1.71222 -0.0475789
upperback -2.393 2.37066 1.30759
thorax -6.8949 1.19678 1.07478
lowerneck -5.34308 -3.66036 0.678586
upperneck -1.83161 -4.91923 4.55578
head 0.425253 -2.4232 1.19037
rclavicle 1.19768e-014 -1.59028e-015
rhumerus 10.9168 4.56745 -34.6793
rradius 129.083
rwrist -58.0724
rhand -3.13159 -55.8566
rfingers 7.12502
rthumb 22.5877 -84.5551
lclavicle 1.19768e-014 -1.59028e-015
lhumerus -54.1327 1.19631 79.8664
lradius 54.1459
lwrist 1.84471
lhand -10.9051 -25.5872
lfingers 7.12502
lthumb 15.1119 3.84112
rfemur 0 0 0
rtibia 0
rfoot 0 0
rtoes 0
lfemur -1.54568 -2.04885 -9.83543
ltibia 26.621
lfoot -24.6063 10.6082
ltoes -56.8154
392
root -0.533234 18.5501 6.22726 -2.02481 -3.40748 -4.93158
lowerback 7.49356 1.71755 0.0283478
upperback -2.55658 2.38653 1.30803
thorax -6.94212 1.20205 1.03448
lowerneck -6.15772 -3.70545 0.49704
upperneck -0.48242 -5.04188 4.59495
head 0.994801 -2.44727 1.20469
rclavicle -2.8128e-014 5.96354e-015
rhumerus 9.82811 4.50219 -35.0285
rradius 127.623
rwrist -58.5913
rhand -2.76746 -56.2731
rfingers 7.12502
rthumb 22.9371 -84.9287
lclavicle -2.8128e-014 5.96354e-015
lhumerus -54.291 1.35868 79.5546
lradius 54.1329
lwrist 2.16287
lhand -10.8432 -25.5976
lfingers 7.12502
lthumb 15.1716 3.82624
rfemur 0 0 0
rtibia 0
rfoot 0 0
rtoes 0
lfemur -1.45558 -2.17272 -9.89094
ltibia 26.4229
lfoot -24.6387 10.533
ltoes -56.6221
393
root -0.527039 18.5521 6.24141 -1.99275 -3.31546 -4.94137
lowerback 7.26756 1.70661 0.134888
upperback -2.74042 2.38476 1.3245
thorax -7.00377 1.19763 0.996269
lowerneck -6.92585 -3.74161 0.285467
upperneck 0.850124 -5.1461 4.60429
head 1.56432 -2.46423 1.21839
rclavicle -2.36305e-014 -2.78299e-015
rhumerus 8.82405 4.48404 -35.3264
rradius 126.021
rwrist -59.032
rhand -2.65198 -56.6953
rfingers 7.12502
rthumb 23.0479 -85.3371
lclavicle -2.36305e-014 -2.78299e-015
lhumerus -54.4129 1.51731 79.2813
lradius 54.0811
lwrist 2.45167
lhand -10.9691 -25.5291
lfingers 7.12502
lthumb 15.0502 3.90383
rfemur 0 0 0
rtibia 0
rfoot 0 0
rtoes 0
lfemur -1.34157 -2.35818 -9.92091
ltibia 26.2244
lfoot -24.7595 10.473
ltoes -56.3585
394
root -0.519462 18.5535 6.25697 -2.00978 -3.19499 -4.88705
lowerback 7.05368 1.69166 0.193534
upperback -2.91706 2.37088 1.31648
thorax -7.06537 1.1886 0.960638
lowerneck -7.57708 -3.76581 0.109633
upperneck 2.13286 -5.228 4.55269
head 2.10653 -2.47506 1.21092
rclavicle 3.09359e-014 8.74653e-015
rhumerus 7.91209 4.43685 -35.5461
rradius 124.261
rwrist -59.1017
rhand -2.50613 -57.2303
rfingers 7.12502
rthumb 23.1879 -85.8545
lclavicle 3.09359e-014 8.74653e-015
lhumerus -54.4949 1.56771 79.2395
lradius 54.5848
lwrist 3.03405
lhand -10.827 -23.0016
lfingers 7.12502
lthumb 15.1872 6.42107
rfemur 0 0 0
rtibia 0
rfoot 0 0
rtoes 0
lfemur -1.18168 -2.60078 -10.0401
ltibia 26.0259
lfoot -24.8736 10.5149
ltoes -56.2238
395
root -0.514158 18.553 6.27314 -2.07514 -3.03453 -4.82462
lowerback 6.86884 1.66225 0.22859
upperback -3.092 2.33324 1.27619
thorax -7.14104 1.16797 0.906675
lowerneck -8.16554 -3.77427 0.0671398
upperneck 3.38926 -5.2939 4.44035
head 2.6337 -2.48093 1.16312
rclavicle 2.18663e-014 -3.57812e-015
rhumerus 7.11969 4.33462 -35.7275
rradius 122.359
rwrist -58.9768
rhand -2.28331 -57.5627
rfingers 7.12502
rthumb 23.4016 -86.1599
lclavicle 2.18663e-014 -3.57812e-015
lhumerus -54.5537 1.64999 79.0327
lradius 54.6994
lwrist 3.26378
lhand -10.8316 -22.0209
lfingers 7.12502
lthumb 15.1827 7.40212
rfemur 0 0 0
rtibia 0
rfoot 0 0
rtoes 0
lfemur -0.983989 -2.84181 -10.1591
ltibia 25.838
lfoot -24.9669 10.5729
ltoes -56.1827
396
root -0.509429 18.5526 6.29007 -2.11974 -2.89213 -4.80373
lowerback 6.65435 1.63374 0.293271
upperback -3.27797 2.30015 1.24753
thorax -7.21086 1.14842 0.848325
lowerneck -8.6671 -3.78765 0.0614586
upperneck 4.57275 -5.36234 4.30005
head 3.12874 -2.49191 1.10095
rclavicle 1.54058e-015 -6.36111e-015
rhumerus 6.43347 4.23427 -35.8373
rradius 120.457
rwrist -58.852
rhand -2.23899 -57.4707
rfingers 7.12502
rthumb 23.4442 -86.0624
lclavicle 1.54058e-015 -6.36111e-015
lhumerus -54.5437 1.78621 78.7842
lradius 54.5516
lwrist 3.29189
lhand -10.9276 -21.8783
lfingers 7.12502
lthumb 15.0903 7.55167
rfemur 0 0 0
rtibia 0
rfoot 0 0
rtoes 0
lfemur -0.80631 -3.0245 -10.2217
ltibia 25.6711
lfoot -25.0426 10.5845
ltoes -56.1424
397
root -0.496273 18.5555 6.30167 -2.07191 -2.95743 -4.7752
lowerback 6.45098 1.65437 0.453281
upperback -3.50788 2.34196 1.20938
thorax -7.33098 1.16042 0.716101
lowerneck -9.08806 -3.77175 -0.0222937
upperneck 5.70704 -5.38309 4.23384
head 3.60577 -2.48067 1.08073
rclavicle 1.70458e-014 1.78906e-014
rhumerus 5.8347 4.15711 -35.9048
rradius 118.64
rwrist -58.7226
rhand -2.24371 -57.3485
rfingers 7.12502
rthumb 23.4396 -85.9408
lclavicle 1.70458e-014 1.78906e-014
lhumerus -54.5161 1.9582 78.5759
lradius 54.3814
lwrist 3.30479
lhand -10.9892 -21.8596
lfingers 7.12502
lthumb 15.0309 7.57476
rfemur 0 0 0
rtibia 0
rfoot 0 0
rtoes 0
lfemur -0.712 -3.18061 -10.3583
ltibia 25.5186
lfoot -25.1258 10.7909
ltoes -56.1623
